<?xml version="1.0" encoding="UTF-8" standalone="no"?>
<!-- Created with Inkscape (http://www.inkscape.org/) -->

<svg
   width="352.22858"
   height="479.03088"
   viewBox="0 0 352.22858 479.03088"
   version="1.1"
   id="svg1"
   xmlns="http://www.w3.org/2000/svg"
   xmlns:svg="http://www.w3.org/2000/svg">
  <defs
     id="defs1" />
  <g
     id="layer1"
     transform="translate(-700.51107,-10.305146)">
    <g
       id="g96"
       transform="matrix(53.250306,0,0,53.250306,-258.47646,-1655.6073)">
      <g
         style="fill:none"
         id="g95"
         transform="matrix(0.26458333,0,0,0.26458333,18.009052,31.284561)">
        <g
           id="g94"
           rx="0"
           ry="0">
          <g
             id="g91">
            <g
               class="fills"
               id="g90">
              <path
                 d="m 0,16 v -1 c 0,0 0,0 0,0 0.55194092,0 1,-0.44812 1,-1 0,-0.55188 -0.44805908,-1 -1,-1 v -1 c 0,0 0,0 0,0 0.55194092,0 1,-0.44812 1,-1 C 1,10.44812 0.55194092,10 0,10 V 9 C 0,9 0,9 0,9 0.55194092,9 1,8.5518799 1,8 1,7.4481201 0.55194092,7 0,7 V 6 C 0,6 0,6 0,6 0.55194092,6 1,5.5518799 1,5 1,4.4481201 0.55194092,4 0,4 V 3 C 0,3 0,3 0,3 0.55194092,3 1,2.5518799 1,2 1,1.4481201 0.55194092,1 0,1 V 0 H 1 C 1,0 1,0 1,0 1,0.55187988 1.4480591,1 2,1 2.5519409,1 3,0.55187988 3,0 3,0 3,0 3,0 H 4 C 4,0 4,0 4,0 4,0.55187988 4.4480591,1 5,1 5.5519409,1 6,0.55187988 6,0 6,0 6,0 6,0 H 7 C 7,0 7,0 7,0 7,0.55187988 7.4480591,1 8,1 8.5519409,1 9,0.55187988 9,0 9,0 9,0 9,0 h 1 c 0,0 0,0 0,0 0,0.55187988 0.448059,1 1,1 0.551941,0 1,-0.44812012 1,-1 0,0 0,0 0,0 h 1 c 0,0 0,0 0,0 0,0.55187988 0.448059,1 1,1 0.551941,0 1,-0.44812012 1,-1 0,0 0,0 0,0 h 1 c 0,0 0,0 0,0 0,0.55187988 0.448059,1 1,1 0.551941,0 1,-0.44812012 1,-1 0,0 0,0 0,0 h 1 c 0,0 0,0 0,0 0,0.55187988 0.448059,1 1,1 0.551941,0 1,-0.44812012 1,-1 0,0 0,0 0,0 h 1 c 0,0 0,0 0,0 0,0.55187988 0.448059,1 1,1 0.551941,0 1,-0.44812012 1,-1 0,0 0,0 0,0 h 1 v 1 c 0,0 0,0 0,0 -0.551941,0 -1,0.4481201 -1,1 0,0.5518799 0.448059,1 1,1 0,0 0,0 0,0 v 1 c 0,0 0,0 0,0 -0.551941,0 -1,0.4481201 -1,1 0,0.5518799 0.448059,1 1,1 0,0 0,0 0,0 v 1 c 0,0 0,0 0,0 -0.551941,0 -1,0.4481201 -1,1 0,0.5518799 0.448059,1 1,1 0,0 0,0 0,0 v 1 c 0,0 0,0 0,0 -0.551941,0 -1,0.44812 -1,1 0,0.55188 0.448059,1 1,1 0,0 0,0 0,0 v 1 c 0,0 0,0 0,0 -0.551941,0 -1,0.44812 -1,1 0,0.55188 0.448059,1 1,1 0,0 0,0 0,0 v 1 c 0,0 0,0 0,0 -0.551941,0 -1,0.44812 -1,1 0,0.55188 0.448059,1 1,1 0,0 0,0 0,0 v 1 c 0,0 0,0 0,0 -0.551941,0 -1,0.44812 -1,1 0,0.55188 0.448059,1 1,1 0,0 0,0 0,0 v 1 c 0,0 0,0 0,0 -0.551941,0 -1,0.44812 -1,1 0,0.55188 0.448059,1 1,1 0,0 0,0 0,0 v 1 c 0,0 0,0 0,0 -0.551941,0 -1,0.44812 -1,1 0,0.55188 0.448059,1 1,1 0,0 0,0 0,0 v 1 c 0,0 0,0 0,0 -0.551941,0 -1,0.44812 -1,1 0,0.55188 0.448059,1 1,1 0,0 0,0 0,0 v 1 c 0,0 0,0 0,0 -0.551941,0 -1,0.44812 -1,1 0,0.55188 0.448059,1 1,1 0,0 0,0 0,0 v 1 h -1 c 0,0 0,0 0,0 0,-0.55188 -0.448059,-1 -1,-1 -0.551941,0 -1,0.44812 -1,1 0,0 0,0 0,0 h -1 c 0,0 0,0 0,0 0,-0.55188 -0.448059,-1 -1,-1 -0.551941,0 -1,0.44812 -1,1 0,0 0,0 0,0 h -1 c 0,0 0,0 0,0 0,-0.55188 -0.448059,-1 -1,-1 -0.551941,0 -1,0.44812 -1,1 0,0 0,0 0,0 h -1 c 0,0 0,0 0,0 0,-0.55188 -0.448059,-1 -1,-1 -0.551941,0 -1,0.44812 -1,1 0,0 0,0 0,0 h -1 c 0,0 0,0 0,0 0,-0.55188 -0.448059,-1 -1,-1 -0.551941,0 -1,0.44812 -1,1 0,0 0,0 0,0 H 9 c 0,0 0,0 0,0 0,-0.55188 -0.4480591,-1 -1,-1 -0.5519409,0 -1,0.44812 -1,1 0,0 0,0 0,0 H 6 c 0,0 0,0 0,0 0,-0.55188 -0.4480591,-1 -1,-1 -0.5519409,0 -1,0.44812 -1,1 0,0 0,0 0,0 H 3 c 0,0 0,0 0,0 0,-0.55188 -0.4480591,-1 -1,-1 -0.5519409,0 -1,0.44812 -1,1 0,0 0,0 0,0 H 0 v -1 c 0,0 0,0 0,0 0.55194092,0 1,-0.44812 1,-1 0,-0.55188 -0.44805908,-1 -1,-1 v -1 c 0,0 0,0 0,0 0.55194092,0 1,-0.44812 1,-1 0,-0.55188 -0.44805908,-1 -1,-1 v -1 c 0,0 0,0 0,0 0.55194092,0 1,-0.44812 1,-1 0,-0.55188 -0.44805908,-1 -1,-1 v -1 c 0,0 0,0 0,0 0.55194092,0 1,-0.44812 1,-1 0,-0.55188 -0.44805908,-1 -1,-1 v -1 c 0,0 0,0 0,0 0.55194092,0 1,-0.44812 1,-1 0,-0.55188 -0.44805908,-1 -1,-1 v -1 c 0,0 0,0 0,0 0.55194092,0 1,-0.44812 1,-1 C 1,16.44812 0.55194092,16 0,16 M 0,4 c 0,0 0,0 0,0 m 0,6 c 0,0 0,0 0,0 m 0,6 c 0,0 0,0 0,0 m 0,6 c 0,0 0,0 0,0 m 0,6 c 0,0 0,0 0,0 M 0,1 c 0,0 0,0 0,0 m 0,6 c 0,0 0,0 0,0 m 0,6 c 0,0 0,0 0,0 m 0,6 c 0,0 0,0 0,0 m 0,6 c 0,0 0,0 0,0 m 0,6 c 0,0 0,0 0,0"
                 style="fill:#ffefd5;fill-opacity:1"
                 id="path89" />
            </g>
          </g>
          <g
             id="g93">
            <g
               class="fills"
               id="g92">
              <rect
                 rx="0"
                 ry="0"
                 x="2"
                 y="2"
                 width="21"
                 height="30"
                 style="fill:#ffffff;fill-opacity:1"
                 id="rect91" />
            </g>
          </g>
        </g>
      </g>
      <g
         id="layer3">
        <path
           style="opacity:1;fill:#afdbf5;fill-opacity:1;fill-rule:evenodd;stroke:#f0f8ff;stroke-width:0.0964682;stroke-dasharray:none;stroke-opacity:1;paint-order:stroke fill markers"
           d="m 24.051616,35.025376 -1.336613,-0.523785 -0.891603,0.558113 -0.344484,0.418587 -0.567385,0.318923 c -0.06063,0.109407 -0.137889,0.20991 -0.227422,0.303805 -0.09657,0.101273 -0.207439,0.194861 -0.327179,0.283709 -0.629755,0.281842 -0.983157,0.569914 -1.559992,0.947192 0.0036,0.08255 -0.0924,0.414643 -0.195439,0.6108 v 1.753428 l 5.462704,0.0068 z"
           id="path96" />
      </g>
      <text
         xml:space="preserve"
         style="font-size:5.64444px;text-align:start;writing-mode:lr-tb;direction:ltr;text-anchor:start;opacity:1;fill:#010b13;fill-opacity:1;fill-rule:evenodd;stroke:none;stroke-width:0.357188;stroke-linecap:round;stroke-linejoin:round;stroke-dasharray:none;stroke-opacity:1;paint-order:stroke markers fill"
         x="19.696926"
         y="39.057762"
         id="text103"><tspan
           id="tspan103"
           style="font-style:normal;font-variant:normal;font-weight:600;font-stretch:normal;font-size:5.64444px;font-family:'URW Bookman';-inkscape-font-specification:'URW Bookman Semi-Bold';fill:#010b13;fill-opacity:1;stroke:none;stroke-width:0.357188;stroke-dasharray:none"
           x="19.696926"
           y="39.057762">ने</tspan></text>
      <g
         id="g82"
         transform="matrix(0.05827589,0,0,0.05827589,15.216911,30.222685)">
        <g
           id="g69"
           transform="translate(-0.03400259,-0.78205959)">
          <g
             id="g56"
             transform="translate(-1.3563929,-2.4321527)">
            <path
               style="opacity:1;fill:#4f7942;fill-opacity:1;stroke-width:0.264498"
               d="m 73.0494,64.95274 c -1.298654,3.135041 -0.05007,7.888063 0.801672,7.877998 1.533304,0.06797 4.067807,-2.990834 3.426794,-8.664224 z"
               id="path55" />
            <path
               style="opacity:1;fill:#9ab973;fill-opacity:1;fill-rule:evenodd;stroke-width:200;stroke-dasharray:none;paint-order:stroke fill markers"
               d="m 74.712953,64.885791 c 0,0 0.976575,0.159132 -0.461011,6.522567"
               id="path56" />
          </g>
          <g
             id="g58"
             transform="matrix(1.4615083,-0.24535432,0.45636212,1.5919179,-61.79964,-23.889347)">
            <path
               style="opacity:1;fill:#4f7942;fill-opacity:1;stroke-width:0.264498"
               d="m 73.0494,64.95274 c -1.298654,3.135041 -0.05007,7.888063 0.801672,7.877998 1.533304,0.06797 4.067807,-2.990834 3.426794,-8.664224 z"
               id="path57" />
            <path
               style="opacity:1;fill:#9ab973;fill-opacity:1;fill-rule:evenodd;stroke-width:200;stroke-dasharray:none;paint-order:stroke fill markers"
               d="m 74.712953,64.885791 c 0,0 0.976575,0.159132 -0.461011,6.522567"
               id="path58" />
          </g>
          <g
             id="g60"
             transform="matrix(0.63049937,-1.3837258,1.6297734,0.69899691,-68.850652,115.3494)">
            <path
               style="opacity:1;fill:#4f7942;fill-opacity:1;stroke-width:0.264498"
               d="m 73.0494,64.95274 c -1.298654,3.135041 -0.05007,7.888063 0.801672,7.877998 1.533304,0.06797 4.067807,-2.990834 3.426794,-8.664224 z"
               id="path59" />
            <path
               style="opacity:1;fill:#9ab973;fill-opacity:1;fill-rule:evenodd;stroke-width:200;stroke-dasharray:none;paint-order:stroke fill markers"
               d="m 74.712953,64.885791 c 0,0 0.976575,0.159132 -0.461011,6.522567"
               id="path60" />
          </g>
          <g
             id="g62"
             transform="matrix(0.64808214,-1.6092163,1.675223,0.81290467,-70.078845,116.60567)">
            <path
               style="opacity:1;fill:#4f7942;fill-opacity:1;stroke-width:0.264498"
               d="m 73.0494,64.95274 c -1.298654,3.135041 -0.05007,7.888063 0.801672,7.877998 1.533304,0.06797 4.067807,-2.990834 3.426794,-8.664224 z"
               id="path61" />
            <path
               style="opacity:1;fill:#9ab973;fill-opacity:1;fill-rule:evenodd;stroke-width:200;stroke-dasharray:none;paint-order:stroke fill markers"
               d="m 74.712953,64.885791 c 0,0 0.976575,0.159132 -0.461011,6.522567"
               id="path62" />
          </g>
          <g
             id="g64"
             transform="matrix(0.87745869,-0.69893468,0.90482174,1.0063969,-42.371109,47.060723)">
            <path
               style="opacity:1;fill:#4f7942;fill-opacity:1;stroke-width:0.264498"
               d="m 73.0494,64.95274 c -1.298654,3.135041 -0.05007,7.888063 0.801672,7.877998 1.533304,0.06797 4.067807,-2.990834 3.426794,-8.664224 z"
               id="path63" />
            <path
               style="opacity:1;fill:#9ab973;fill-opacity:1;fill-rule:evenodd;stroke-width:200;stroke-dasharray:none;paint-order:stroke fill markers"
               d="m 74.712953,64.885791 c 0,0 0.976575,0.159132 -0.461011,6.522567"
               id="path64" />
          </g>
          <g
             id="g66"
             transform="matrix(0.72449986,-0.64799721,0.87635586,0.75922293,-21.271466,53.270446)">
            <path
               style="opacity:1;fill:#4f7942;fill-opacity:1;stroke-width:0.264498"
               d="m 73.0494,64.95274 c -1.298654,3.135041 -0.05007,7.888063 0.801672,7.877998 1.533304,0.06797 4.067807,-2.990834 3.426794,-8.664224 z"
               id="path65" />
            <path
               style="opacity:1;fill:#9ab973;fill-opacity:1;fill-rule:evenodd;stroke-width:200;stroke-dasharray:none;paint-order:stroke fill markers"
               d="m 74.712953,64.885791 c 0,0 0.976575,0.159132 -0.461011,6.522567"
               id="path66" />
          </g>
          <g
             id="g68"
             transform="matrix(0.21702601,-0.94747039,1.1539276,0.11344625,-1.1645838,109.75886)">
            <path
               style="opacity:1;fill:#4f7942;fill-opacity:1;stroke-width:0.264498"
               d="m 73.0494,64.95274 c -1.298654,3.135041 -0.05007,7.888063 0.801672,7.877998 1.533304,0.06797 4.067807,-2.990834 3.426794,-8.664224 z"
               id="path67" />
            <path
               style="opacity:1;fill:#9ab973;fill-opacity:1;fill-rule:evenodd;stroke-width:200;stroke-dasharray:none;paint-order:stroke fill markers"
               d="m 74.712953,64.885791 c 0,0 0.976575,0.159132 -0.461011,6.522567"
               id="path68" />
          </g>
        </g>
        <path
           style="opacity:1;fill:#c01e3a;fill-opacity:1;stroke-width:0.264583"
           d="m 64.273397,57.89791 c -0.679715,0.355378 -2.444379,-1.240142 -0.341831,-3.703947 0.02124,-0.184333 -0.03116,-0.368667 -0.312565,-0.553 -0.659095,-0.116386 -0.7326,-0.494027 -1.278656,-1.090103 -0.285551,-0.311709 -1.227538,0.277291 -1.19782,-0.364525 -0.106344,-0.397114 0.220014,-0.83296 0.230667,-1.213866 0.0073,-0.260804 -0.04324,-0.518396 -0.206617,-0.769719 -1.214838,-0.556213 -1.451779,-1.156376 -0.649173,-1.80326 -1.103216,-1.732437 -1.397963,-3.63041 0.05246,-4.724439 0.285514,-2.32373 0.19191,-6.097095 2.327839,-6.119162 -0.0308,-0.507255 -0.230437,-0.975919 0.814974,-1.729165 -0.118635,-0.407078 -0.296371,-0.786013 -0.189843,-1.300311 0.396797,-0.756396 0.855521,-1.474682 2.885216,-1.226217 0.362839,-1.708578 1.346428,-2.680775 3.342042,-2.452433 2.425355,-2.255929 4.779475,-2.049186 7.09282,-0.432782 2.019652,-1.450631 3.846953,-1.250252 5.48191,0.601086 0.810885,-0.152694 1.625621,-0.02425 2.452433,0.985782 0.556715,0.718664 1.16472,1.373213 2.163911,1.538782 2.560871,-0.99377 4.957337,2.634686 3.919085,3.726735 0.608273,-0.08377 1.324615,0.0013 2.692868,1.057913 0.827256,1.012473 0.863728,1.758414 0.847355,4.039759 -0.943947,0.341959 -0.761633,1.19495 -0.727139,1.466194 0.506629,2.354173 -2.202072,2.954756 -3.42413,3.144818 2.40213,2.373165 0.39911,3.421769 0.01,4.21248 3.701449,2.523216 0.778482,10.415869 -6.515778,3.846955 3.286161,3.921161 2.953536,14.767356 -4.934922,5.073169 1.297324,6.17715 -10.229006,6.211028 -6.137094,1.713098 -0.570302,0.670138 -5.440815,1.735733 -5.710321,-2.266095 -1.487205,1.128457 -2.542371,0.503397 -2.687647,-1.657747 z"
           id="path69" />
        <path
           style="opacity:1;fill:#b31b1b;fill-opacity:1;stroke-width:0.260506"
           d="m 76.83187,42.223471 c -0.596046,-0.161647 -0.726207,-1.297829 -0.361524,-1.938047 0.167775,-0.294539 0.340779,-0.651381 0.900191,-0.991617 -0.573656,-0.781792 -1.632044,-2.392668 0.293818,-3.181432 -0.03378,-3.552033 2.010084,-2.711598 4.284846,-1.647935 4.224892,-0.444144 6.726683,2.940476 5.974297,4.646263 5.050941,1.450865 3.311616,3.092137 1.444603,3.913845 1.303702,3.451233 -1.426692,4.269054 -3.036118,3.913847 z"
           id="path70" />
        <path
           style="opacity:1;fill:#c51e3a;fill-opacity:1;stroke-width:0.269133"
           d="m 78.865273,43.444241 c -0.605602,-0.169807 -0.737851,-1.363347 -0.367321,-2.035887 0.170466,-0.309408 0.346245,-0.684264 0.914626,-1.041677 -0.582856,-0.82126 -1.658215,-2.513459 0.29853,-3.342043 -0.03432,-3.731353 2.042317,-2.84849 4.353556,-1.731128 4.292641,-0.466567 6.834551,3.088922 6.070099,4.880824 5.131936,1.524109 3.364721,3.248239 1.46777,4.111431 1.324607,3.625464 -1.449571,4.48457 -3.084805,4.111433 z"
           id="path71" />
        <path
           style="opacity:1;fill:#b31b1b;fill-opacity:1;fill-rule:evenodd;stroke-width:0.149245;stroke-dasharray:none"
           d="m 79.460581,39.789349 c 0.626776,-0.599581 5.461245,-3.178054 6.299386,1.671108 1.317406,0.440952 2.435528,0.580154 2.31445,1.518935 1.501263,-0.377627 1.970085,0.382306 2.522814,0.808812 1.415646,1.130597 1.401044,1.92561 0.654767,2.53956 0.128554,1.409951 -0.316801,2.060439 -1.348765,1.934662 -1.547992,1.739183 -13.705022,-6.068722 -11.428435,-6.237033 -0.647213,-1.233252 0.281624,-1.678478 0.985783,-2.236044 z"
           id="path72" />
        <path
           style="opacity:1;fill:#b31b1b;fill-opacity:1;stroke-width:0.264583"
           d="m 76.048878,38.734018 c 0.563316,-0.82126 0.276524,-1.935415 -1.614623,-2.763999 0.03317,-3.731353 -2.534893,-3.443536 -4.768649,-2.326174 -4.148733,-0.466567 -4.973303,1.575807 -4.234478,3.367709 -4.959892,1.524109 -3.217919,4.914366 -1.384562,5.777558 -0.945546,8.037661 17.097308,-1.391346 12.002312,-4.055094 z"
           id="path73" />
        <path
           style="opacity:1;fill:#c51e3a;fill-opacity:1;stroke-width:0.264583"
           d="m 79.279124,39.108046 c 0.563316,-0.82126 0.276524,-1.935415 -1.614623,-2.763999 0.03317,-3.731353 -2.534893,-3.443536 -4.768649,-2.326174 -4.148733,-0.466567 -4.973303,1.575807 -4.234478,3.367709 -4.959892,1.524109 -3.217919,4.914366 -1.384562,5.777558 -0.945546,8.037661 17.097308,-1.391346 12.002312,-4.055094 z"
           id="path74" />
        <path
           style="opacity:1;fill:#b31b1b;fill-opacity:1;fill-rule:evenodd;stroke-width:0.153395;stroke-dasharray:none"
           d="m 66.482583,38.840129 c 0.632784,-0.621732 5.724771,-3.483526 7.153814,1.025178 1.505528,0.300836 2.759073,0.334047 2.721712,1.231834 1.624864,-0.488883 2.222828,0.188016 2.879393,0.54245 1.685538,0.943904 1.751354,1.696468 0.987598,2.342278 0.287897,1.321085 -0.138585,1.974956 -1.295259,1.946856 -1.536218,1.779651 -15.814873,-4.529591 -13.309148,-4.888859 -0.844489,-1.108493 0.138996,-1.610915 0.86189,-2.199737 z"
           id="path75" />
        <path
           style="opacity:1;fill:#c51e3a;fill-opacity:1;fill-rule:evenodd;stroke-width:0.265;stroke-dasharray:none"
           d="m 69.223735,53.00108 c -1.420211,1.056948 -2.168999,1.020236 -4.20595,-0.25923 -1.191714,-0.643572 -2.693059,-2.592718 -0.831564,-4.134292 -2.865774,-2.199345 -1.665781,-3.568028 0.01067,-4.846223 0.179383,-1.550117 3.76047,-9.954522 10.06889,-2.218065 2.203963,-0.305091 3.82211,-0.972041 4.671231,0.755952 1.566388,-1.875443 2.998281,-0.937259 4.182319,-0.646049 3.07361,0.81222 3.908192,2.204128 3.587275,3.876295 1.683002,2.343034 1.796587,3.834099 0.306023,4.45434 -0.165593,4.276905 -3.701649,3.284147 -5.5713,2.999771 0.334564,2.806167 -3.253024,4.07736 -7.332683,-0.330568 -1.025554,2.476084 -3.25026,2.199782 -4.884911,0.348069 z"
           id="path76" />
        <g
           id="g81">
          <path
             style="opacity:1;fill:#ff7f7f;fill-opacity:0.253458;fill-rule:evenodd;stroke:none;stroke-width:1.05728;stroke-dasharray:none;stroke-opacity:1;paint-order:stroke fill markers"
             d="m 73.322656,42.068749 c -4.896709,-3.338822 -7.383462,-1.59653 -7.892389,2.246608 -2.252032,1.673016 -1.568019,2.609362 -0.196492,4.30481 -1.527049,4.771445 3.053745,4.163011 4.285495,2.940509 -1.143244,-0.896923 -3.156778,0.381876 -3.301574,-3.011167 -0.520634,-1.141457 -1.742621,-2.013164 0.02339,-4.034099 0.722057,-2.945475 3.610307,-2.746379 7.081574,-2.446661 z"
             id="path77" />
          <path
             style="opacity:1;fill:#ff7f7f;fill-opacity:0.253458;fill-rule:evenodd;stroke:none;stroke-width:1.05728;stroke-dasharray:none;stroke-opacity:1;paint-order:stroke fill markers"
             d="m 81.111385,42.175731 c 5.50881,2.185977 7.516536,5.981976 4.61807,8.556391 -0.124348,2.802707 -3.002037,1.895323 -5.174798,1.708935 -3.097123,3.937816 -4.855144,0.924909 -4.532452,-0.780257 0.922161,0.508958 1.907738,3.592192 4.48415,-0.401784 1.36717,-0.124039 4.948662,1.364908 4.427785,-2.010241 2.577817,-3.265009 -1.296655,-3.639835 -3.588897,-6.16099 z"
             id="path78" />
          <path
             style="opacity:1;fill:#ff7f7f;fill-opacity:0.253458;fill-rule:evenodd;stroke:none;stroke-width:1.05728;stroke-dasharray:none;stroke-opacity:1;paint-order:stroke fill markers"
             d="m 69.310423,37.397072 c -0.998987,-2.158045 0.341425,-2.799945 3.823134,-2.745187 2.24674,-1.711259 2.790378,0.26356 4.023604,2.044995 1.944531,0.147217 3.333331,3.963779 2.170548,4.778703 -0.08425,-1.839407 -1.608109,-4.040313 -3.27144,-5.103804 -2.137377,-1.366585 -6.24829,-1.311397 -6.745846,1.025293 z"
             id="path79" />
          <path
             style="opacity:1;fill:#ff7f7f;fill-opacity:0.253458;fill-rule:evenodd;stroke:none;stroke-width:1.1916;stroke-dasharray:none;stroke-opacity:1;paint-order:stroke fill markers"
             d="m 80.567581,38.988933 c -1.059509,-3.219279 0.639329,-4.910727 3.378745,-3.287258 5.009628,-0.07064 5.614751,2.791523 5.823663,4.838966 4.239429,1.382864 3.298722,2.696943 0.81918,3.060204 1.650842,-1.933976 -0.379356,-2.003909 -1.21004,-2.741194 -0.716826,-0.636228 -0.541636,-1.795194 -1.525163,-2.370257 -0.841426,-0.491978 -0.790626,-1.40121 -1.353314,-1.659937 -0.89363,-0.410894 -1.967532,-0.279743 -2.739725,-0.564001 -0.759473,-0.279576 -1.29151,-0.580428 -1.813211,-0.417286 -0.92433,0.289048 -1.515206,1.457987 -1.380135,3.140763 z"
             id="path80" />
          <path
             style="opacity:1;fill:#ff7f7f;fill-opacity:0.253458;fill-rule:evenodd;stroke:none;stroke-width:1.05728;stroke-dasharray:none;stroke-opacity:1;paint-order:stroke fill markers"
             d="m 66.858415,54.638796 c -4.026087,2.851398 -1.303827,6.214956 0.25445,4.087805 1.15741,2.844758 4.327684,3.443238 6.263818,2.133488 -0.715575,7.016948 5.756429,0.707536 4.831029,-0.760576 -1.52313,2.052277 -4.240095,5.73242 -4.23001,-0.261937 -0.884941,1.306106 -5.810724,1.232798 -6.446483,-2.034285 -1.845845,1.628098 -2.963207,-0.381915 -0.672804,-3.164495 z"
             id="path81" />
        </g>
      </g>
    </g>
  </g>
</svg>
